<?xml version="1.0" ?><svg width="60px" height="60px" viewBox="0 0 60 60" xmlns="http://www.w3.org/2000/svg"><rect fill="#fff" height="60" rx="10" width="60"/><circle cx="30" cy="30" fill="#c1f7fd" r="22"/><ellipse cx="30" cy="30" fill="#c1f7fd" rx="8" ry="22"/><path d="M30,53.5c-6.171,0-9.5-12.108-9.5-23.5S23.829,6.5,30,6.5,39.5,18.608,39.5,30,36.171,53.5,30,53.5Zm0-44c-2.714,0-6.5,7.8-6.5,20.5S27.286,50.5,30,50.5s6.5-7.8,6.5-20.5S32.714,9.5,30,9.5Z" fill="#7bcdd1"/><path d="M50,23.5H10a1.5,1.5,0,0,1,0-3H50a1.5,1.5,0,0,1,0,3Z" fill="#7bcdd1"/><path d="M50,39.5H10a1.5,1.5,0,0,1,0-3H50a1.5,1.5,0,0,1,0,3Z" fill="#7bcdd1"/><path d="M30,53.5A23.5,23.5,0,1,1,53.5,30,23.527,23.527,0,0,1,30,53.5Zm0-44A20.5,20.5,0,1,0,50.5,30,20.523,20.523,0,0,0,30,9.5Z" fill="#8d9cf4"/><path d="M8,31.5A1.5,1.5,0,0,1,6.5,30,23.527,23.527,0,0,1,30,6.5a1.5,1.5,0,0,1,0,3A20.523,20.523,0,0,0,9.5,30,1.5,1.5,0,0,1,8,31.5Z" fill="#bec6f4"/></svg>