<?xml version="1.0" standalone="no"?>
<!DOCTYPE svg PUBLIC "-//W3C//DTD SVG 20010904//EN"
 "http://www.w3.org/TR/2001/REC-SVG-20010904/DTD/svg10.dtd">
<svg version="1.0" xmlns="http://www.w3.org/2000/svg"
 width="1000.000000pt" height="1000.000000pt" viewBox="0 0 1000.000000 1000.000000"
 preserveAspectRatio="xMidYMid meet">

<g transform="translate(0.000000,1000.000000) scale(0.100000,-0.100000)"
fill="#fff" stroke="none">
<path d="M740 5000 l0 -3500 3500 0 3500 0 0 220 0 220 200 0 200 0 0 70 0 70
-200 0 -200 0 0 200 0 200 165 0 165 0 0 70 0 70 -165 0 -165 0 0 185 0 185
195 0 196 0 -3 73 -3 72 -192 3 -193 2 0 2680 0 2680 -3500 0 -3500 0 0 -3500z
m6950 795 l0 -2655 -220 0 -220 0 0 -600 0 -600 218 -2 217 -3 3 -192 2 -193
-3450 0 -3450 0 0 3450 0 3450 3450 0 3450 0 0 -2655z m-2 -2987 l-3 -183
-137 -3 -138 -3 0 186 0 185 140 0 140 0 -2 -182z m2 -528 l0 -200 -140 0
-140 0 0 200 0 200 140 0 140 0 0 -200z"/>
<path d="M1560 5244 c-208 -45 -361 -211 -406 -443 -20 -104 -15 -303 11 -401
35 -130 106 -242 193 -302 103 -72 189 -98 322 -98 142 0 243 34 341 112 78
62 154 202 174 316 l7 42 -79 0 -80 0 -17 -62 c-23 -83 -55 -136 -115 -190
-62 -56 -118 -73 -231 -72 -188 2 -306 99 -356 295 -20 77 -22 257 -4 344 38
183 149 299 312 326 175 29 319 -41 378 -184 l24 -57 78 0 79 0 -7 38 c-15 86
-89 199 -169 258 -111 83 -291 114 -455 78z"/>
<path d="M2720 5248 c-190 -27 -320 -167 -322 -347 -1 -92 18 -145 69 -197 54
-56 102 -76 278 -120 239 -59 261 -65 310 -93 59 -32 85 -65 92 -119 16 -118
-54 -201 -195 -231 -113 -24 -241 -7 -326 43 -55 32 -103 108 -112 179 l-7 47
-77 0 -76 0 8 -67 c20 -168 136 -291 314 -334 74 -18 248 -15 324 5 72 18 174
65 205 93 92 82 127 228 89 361 -13 43 -29 68 -68 107 -63 64 -104 80 -352
140 -271 65 -313 89 -322 183 -14 151 129 242 336 212 129 -18 190 -66 219
-171 l16 -59 74 0 73 0 0 45 c0 55 -33 145 -68 187 -56 67 -168 121 -287 138
-81 11 -106 11 -195 -2z"/>
<path d="M3842 5250 c-134 -19 -249 -99 -301 -209 -22 -47 -26 -70 -26 -146 0
-101 14 -142 69 -196 48 -49 119 -76 333 -130 282 -71 322 -93 344 -186 19
-86 -16 -161 -96 -205 -143 -78 -380 -56 -470 43 -39 44 -51 68 -66 141 l-11
48 -74 0 -74 0 0 -32 c0 -44 22 -124 48 -173 46 -89 155 -168 272 -196 77 -18
251 -16 327 4 76 20 178 70 216 106 86 79 116 270 62 385 -24 49 -78 102 -136
131 -25 13 -122 42 -215 65 -309 75 -351 95 -374 178 -19 74 20 162 92 202 82
46 257 46 347 1 52 -27 98 -82 111 -133 6 -24 13 -49 15 -55 3 -9 29 -13 81
-13 l77 0 -7 51 c-17 130 -77 214 -188 268 -103 49 -234 68 -356 51z"/>
<path d="M2996 3160 c-161 -29 -270 -98 -352 -222 -82 -123 -115 -240 -115
-413 0 -310 139 -525 391 -602 74 -23 234 -27 320 -9 221 47 382 215 434 455
21 95 21 278 0 368 -48 211 -184 357 -379 408 -73 19 -232 27 -299 15z m250
-157 c136 -46 223 -145 265 -303 18 -67 16 -243 -4 -320 -38 -145 -111 -251
-205 -297 -49 -24 -71 -28 -164 -32 -88 -3 -120 1 -176 18 -168 51 -266 221
-264 461 0 152 37 275 107 358 33 39 118 95 175 115 62 21 203 22 266 0z"/>
<path d="M1190 2540 l0 -600 75 0 75 0 1 498 0 497 94 -275 c52 -151 129 -375
171 -497 l76 -223 82 0 82 0 158 468 c86 257 163 480 169 495 9 22 11 -80 8
-467 l-3 -496 81 0 81 0 -2 598 -3 597 -114 0 -113 0 -170 -499 c-92 -275
-170 -501 -172 -503 -3 -3 -33 82 -257 740 l-91 267 -114 0 -114 0 0 -600z"/>
<path d="M3895 3128 c-3 -7 -4 -278 -3 -603 l3 -590 280 1 c298 0 353 7 447
55 106 54 206 205 243 369 23 99 23 281 1 374 -55 229 -208 374 -421 396 -140
15 -545 13 -550 -2z m586 -152 c62 -18 128 -69 163 -125 73 -119 96 -313 56
-480 -25 -104 -61 -171 -119 -222 -66 -58 -116 -70 -333 -76 l-188 -6 0 468 0
468 183 -5 c126 -4 199 -11 238 -22z"/>
<path d="M5112 2708 c4 -399 6 -438 24 -499 56 -181 173 -277 367 -299 87 -10
209 1 277 25 70 24 146 82 183 139 81 123 87 169 87 659 l0 407 -79 0 -80 0
-3 -432 c-3 -425 -4 -434 -26 -490 -45 -112 -143 -168 -294 -168 -104 0 -171
29 -222 95 -68 89 -69 101 -74 573 l-4 422 -79 0 -80 0 3 -432z"/>
<path d="M6307 3134 c-4 -4 -7 -274 -7 -601 l0 -593 385 0 385 0 0 70 0 70
-300 0 -300 0 -2 528 -3 527 -75 3 c-42 1 -79 0 -83 -4z"/>
<path d="M8735 3163 c-152 -10 -262 -66 -328 -166 -43 -66 -57 -117 -57 -204
0 -120 62 -210 175 -252 28 -11 136 -40 240 -66 198 -49 263 -75 305 -120 21
-22 25 -38 28 -98 5 -95 -16 -129 -111 -176 -59 -30 -79 -35 -165 -39 -107 -5
-187 11 -251 50 -45 28 -88 99 -103 170 l-12 58 -73 0 -73 0 0 -43 c0 -98 58
-211 142 -278 122 -96 349 -125 533 -68 191 59 263 143 273 315 6 102 -13 165
-69 228 -54 62 -116 88 -314 136 -287 69 -327 86 -362 154 -34 66 10 182 85
223 51 28 83 34 172 34 173 0 261 -56 294 -189 l12 -47 75 0 74 0 -4 50 c-5
70 -37 151 -78 196 -77 85 -250 141 -408 132z"/>
</g>
</svg>
